<svg id="visual" viewBox="0 0 960 540" width="960" height="540" xmlns="http://www.w3.org/2000/svg" xmlns:xlink="http://www.w3.org/1999/xlink" version="1.1"><g stroke-width="1" stroke-linejoin="bevel"><path d="M453 272L455 241L399 247Z" fill="#297ea6" stroke="#297ea6"></path><path d="M399 247L430 296L453 272Z" fill="#15384f" stroke="#15384f"></path><path d="M455 241L438 214L399 247Z" fill="#297ea6" stroke="#297ea6"></path><path d="M438 214L414 211L399 247Z" fill="#00101c" stroke="#00101c"></path><path d="M399 247L397 294L430 296Z" fill="#081a28" stroke="#081a28"></path><path d="M453 272L478 227L455 241Z" fill="#15384f" stroke="#15384f"></path><path d="M455 241L478 227L438 214Z" fill="#1d4e6b" stroke="#1d4e6b"></path><path d="M478 227L448 195L438 214Z" fill="#205a7a" stroke="#205a7a"></path><path d="M438 214L448 195L414 211Z" fill="#297ea6" stroke="#297ea6"></path><path d="M337 239L373 290L399 247Z" fill="#0c2435" stroke="#0c2435"></path><path d="M399 247L373 290L397 294Z" fill="#19435d" stroke="#19435d"></path><path d="M391 189L386 199L414 211Z" fill="#15384f" stroke="#15384f"></path><path d="M414 211L386 199L399 247Z" fill="#0c2435" stroke="#0c2435"></path><path d="M437 356L458 321L430 296Z" fill="#0c2435" stroke="#0c2435"></path><path d="M430 296L458 321L453 272Z" fill="#112e42" stroke="#112e42"></path><path d="M453 272L520 263L478 227Z" fill="#081a28" stroke="#081a28"></path><path d="M437 356L430 296L397 294Z" fill="#0c2435" stroke="#0c2435"></path><path d="M448 195L391 189L414 211Z" fill="#246688" stroke="#246688"></path><path d="M458 321L520 263L453 272Z" fill="#19435d" stroke="#19435d"></path><path d="M478 227L494 186L448 195Z" fill="#00101c" stroke="#00101c"></path><path d="M346 203L337 239L386 199Z" fill="#246688" stroke="#246688"></path><path d="M386 199L337 239L399 247Z" fill="#246688" stroke="#246688"></path><path d="M520 263L494 186L478 227Z" fill="#112e42" stroke="#112e42"></path><path d="M449 147L380 161L391 189Z" fill="#277297" stroke="#277297"></path><path d="M550 324L523 264L520 263Z" fill="#0c2435" stroke="#0c2435"></path><path d="M520 263L531 265L494 186Z" fill="#112e42" stroke="#112e42"></path><path d="M380 161L346 203L386 199Z" fill="#112e42" stroke="#112e42"></path><path d="M322 224L329 267L337 239Z" fill="#297ea6" stroke="#297ea6"></path><path d="M337 239L329 267L373 290Z" fill="#246688" stroke="#246688"></path><path d="M365 337L397 294L373 290Z" fill="#112e42" stroke="#112e42"></path><path d="M365 337L437 356L397 294Z" fill="#19435d" stroke="#19435d"></path><path d="M550 324L531 265L523 264Z" fill="#112e42" stroke="#112e42"></path><path d="M550 324L520 263L458 321Z" fill="#277297" stroke="#277297"></path><path d="M523 264L531 265L520 263Z" fill="#112e42" stroke="#112e42"></path><path d="M329 267L365 337L373 290Z" fill="#0c2435" stroke="#0c2435"></path><path d="M449 147L391 189L448 195Z" fill="#19435d" stroke="#19435d"></path><path d="M391 189L380 161L386 199Z" fill="#246688" stroke="#246688"></path><path d="M494 186L449 147L448 195Z" fill="#0c2435" stroke="#0c2435"></path><path d="M332 176L322 224L346 203Z" fill="#0c2435" stroke="#0c2435"></path><path d="M346 203L322 224L337 239Z" fill="#246688" stroke="#246688"></path><path d="M380 161L332 176L346 203Z" fill="#0c2435" stroke="#0c2435"></path><path d="M437 356L497 365L458 321Z" fill="#15384f" stroke="#15384f"></path><path d="M569 298L565 266L531 265Z" fill="#19435d" stroke="#19435d"></path><path d="M531 265L565 266L494 186Z" fill="#00101c" stroke="#00101c"></path><path d="M497 365L550 324L458 321Z" fill="#205a7a" stroke="#205a7a"></path><path d="M380 161L319 161L332 176Z" fill="#246688" stroke="#246688"></path><path d="M332 176L286 222L322 224Z" fill="#297ea6" stroke="#297ea6"></path><path d="M320 67L319 161L380 161Z" fill="#15384f" stroke="#15384f"></path><path d="M284 162L286 222L332 176Z" fill="#19435d" stroke="#19435d"></path><path d="M322 224L286 222L329 267Z" fill="#297ea6" stroke="#297ea6"></path><path d="M329 267L304 365L365 337Z" fill="#277297" stroke="#277297"></path><path d="M550 324L569 298L531 265Z" fill="#19435d" stroke="#19435d"></path><path d="M437 356L471 400L497 365Z" fill="#297ea6" stroke="#297ea6"></path><path d="M497 365L551 371L550 324Z" fill="#081a28" stroke="#081a28"></path><path d="M342 446L471 400L437 356Z" fill="#297ea6" stroke="#297ea6"></path><path d="M474 89L448 92L449 147Z" fill="#00101c" stroke="#00101c"></path><path d="M449 147L448 92L380 161Z" fill="#15384f" stroke="#15384f"></path><path d="M474 89L449 147L494 186Z" fill="#112e42" stroke="#112e42"></path><path d="M241 319L304 365L329 267Z" fill="#00101c" stroke="#00101c"></path><path d="M365 337L342 446L437 356Z" fill="#112e42" stroke="#112e42"></path><path d="M262 216L265 221L286 222Z" fill="#112e42" stroke="#112e42"></path><path d="M286 222L241 319L329 267Z" fill="#246688" stroke="#246688"></path><path d="M304 365L313 378L365 337Z" fill="#00101c" stroke="#00101c"></path><path d="M313 378L315 380L365 337Z" fill="#0c2435" stroke="#0c2435"></path><path d="M521 437L551 371L497 365Z" fill="#0c2435" stroke="#0c2435"></path><path d="M615 332L605 290L569 298Z" fill="#297ea6" stroke="#297ea6"></path><path d="M284 162L262 216L286 222Z" fill="#15384f" stroke="#15384f"></path><path d="M266 370L299 404L304 365Z" fill="#19435d" stroke="#19435d"></path><path d="M320 67L284 162L319 161Z" fill="#1d4e6b" stroke="#1d4e6b"></path><path d="M319 161L284 162L332 176Z" fill="#0c2435" stroke="#0c2435"></path><path d="M584 133L474 89L494 186Z" fill="#00101c" stroke="#00101c"></path><path d="M486 37L471 83L474 89Z" fill="#205a7a" stroke="#205a7a"></path><path d="M474 89L471 83L448 92Z" fill="#19435d" stroke="#19435d"></path><path d="M602 344L569 298L550 324Z" fill="#081a28" stroke="#081a28"></path><path d="M569 298L605 290L565 266Z" fill="#15384f" stroke="#15384f"></path><path d="M565 266L612 182L494 186Z" fill="#246688" stroke="#246688"></path><path d="M615 271L610 232L565 266Z" fill="#00101c" stroke="#00101c"></path><path d="M605 290L615 271L565 266Z" fill="#297ea6" stroke="#297ea6"></path><path d="M320 67L265 160L284 162Z" fill="#112e42" stroke="#112e42"></path><path d="M284 162L249 188L262 216Z" fill="#205a7a" stroke="#205a7a"></path><path d="M320 67L380 161L448 92Z" fill="#205a7a" stroke="#205a7a"></path><path d="M265 160L249 188L284 162Z" fill="#15384f" stroke="#15384f"></path><path d="M241 319L286 222L265 221Z" fill="#15384f" stroke="#15384f"></path><path d="M574 409L595 356L551 371Z" fill="#19435d" stroke="#19435d"></path><path d="M551 371L595 356L550 324Z" fill="#297ea6" stroke="#297ea6"></path><path d="M605 290L631 314L615 271Z" fill="#297ea6" stroke="#297ea6"></path><path d="M595 356L602 344L550 324Z" fill="#246688" stroke="#246688"></path><path d="M304 365L299 404L313 378Z" fill="#0c2435" stroke="#0c2435"></path><path d="M313 378L299 404L315 380Z" fill="#205a7a" stroke="#205a7a"></path><path d="M315 380L342 446L365 337Z" fill="#205a7a" stroke="#205a7a"></path><path d="M241 319L202 282L218 325Z" fill="#19435d" stroke="#19435d"></path><path d="M615 175L612 182L661 209Z" fill="#081a28" stroke="#081a28"></path><path d="M610 232L612 182L565 266Z" fill="#246688" stroke="#246688"></path><path d="M610 173L584 133L494 186Z" fill="#00101c" stroke="#00101c"></path><path d="M234 324L241 319L218 325Z" fill="#19435d" stroke="#19435d"></path><path d="M240 333L266 370L304 365Z" fill="#205a7a" stroke="#205a7a"></path><path d="M612 182L610 173L494 186Z" fill="#15384f" stroke="#15384f"></path><path d="M658 356L612 336L602 344Z" fill="#081a28" stroke="#081a28"></path><path d="M602 344L612 336L569 298Z" fill="#112e42" stroke="#112e42"></path><path d="M612 336L615 332L569 298Z" fill="#15384f" stroke="#15384f"></path><path d="M615 175L610 165L610 173Z" fill="#297ea6" stroke="#297ea6"></path><path d="M610 173L610 165L584 133Z" fill="#277297" stroke="#277297"></path><path d="M661 209L612 182L610 232Z" fill="#1d4e6b" stroke="#1d4e6b"></path><path d="M612 182L615 175L610 173Z" fill="#205a7a" stroke="#205a7a"></path><path d="M234 324L240 333L241 319Z" fill="#277297" stroke="#277297"></path><path d="M241 319L240 333L304 365Z" fill="#246688" stroke="#246688"></path><path d="M493 476L521 437L471 400Z" fill="#15384f" stroke="#15384f"></path><path d="M471 400L521 437L497 365Z" fill="#1d4e6b" stroke="#1d4e6b"></path><path d="M241 319L265 221L202 282Z" fill="#246688" stroke="#246688"></path><path d="M299 404L342 446L315 380Z" fill="#297ea6" stroke="#297ea6"></path><path d="M639 319L615 332L658 356Z" fill="#0c2435" stroke="#0c2435"></path><path d="M639 319L631 314L615 332Z" fill="#1d4e6b" stroke="#1d4e6b"></path><path d="M615 332L631 314L605 290Z" fill="#081a28" stroke="#081a28"></path><path d="M615 271L642 260L610 232Z" fill="#277297" stroke="#277297"></path><path d="M521 437L574 409L551 371Z" fill="#15384f" stroke="#15384f"></path><path d="M658 356L615 332L612 336Z" fill="#205a7a" stroke="#205a7a"></path><path d="M347 455L344 451L337 487Z" fill="#19435d" stroke="#19435d"></path><path d="M290 449L344 451L342 446Z" fill="#081a28" stroke="#081a28"></path><path d="M342 446L347 455L471 400Z" fill="#112e42" stroke="#112e42"></path><path d="M240 333L242 360L266 370Z" fill="#277297" stroke="#277297"></path><path d="M266 370L255 402L299 404Z" fill="#1d4e6b" stroke="#1d4e6b"></path><path d="M218 325L242 360L240 333Z" fill="#277297" stroke="#277297"></path><path d="M631 314L642 260L615 271Z" fill="#0c2435" stroke="#0c2435"></path><path d="M290 449L342 446L299 404Z" fill="#205a7a" stroke="#205a7a"></path><path d="M344 451L347 455L342 446Z" fill="#277297" stroke="#277297"></path><path d="M332 30L320 67L448 92Z" fill="#205a7a" stroke="#205a7a"></path><path d="M658 356L602 344L595 356Z" fill="#19435d" stroke="#19435d"></path><path d="M631 314L639 319L642 260Z" fill="#00101c" stroke="#00101c"></path><path d="M234 324L218 325L240 333Z" fill="#0c2435" stroke="#0c2435"></path><path d="M202 282L265 221L262 216Z" fill="#112e42" stroke="#112e42"></path><path d="M680 222L651 240L642 260Z" fill="#15384f" stroke="#15384f"></path><path d="M642 260L651 240L610 232Z" fill="#112e42" stroke="#112e42"></path><path d="M615 175L683 182L610 165Z" fill="#0c2435" stroke="#0c2435"></path><path d="M567 19L486 37L474 89Z" fill="#081a28" stroke="#081a28"></path><path d="M471 83L486 37L448 92Z" fill="#297ea6" stroke="#297ea6"></path><path d="M218 325L233 369L242 360Z" fill="#246688" stroke="#246688"></path><path d="M242 360L233 369L266 370Z" fill="#297ea6" stroke="#297ea6"></path><path d="M233 369L255 402L266 370Z" fill="#19435d" stroke="#19435d"></path><path d="M249 188L202 282L262 216Z" fill="#246688" stroke="#246688"></path><path d="M218 325L194 350L233 369Z" fill="#205a7a" stroke="#205a7a"></path><path d="M383 506L493 476L471 400Z" fill="#0c2435" stroke="#0c2435"></path><path d="M605 489L619 433L574 409Z" fill="#081a28" stroke="#081a28"></path><path d="M680 222L661 209L651 240Z" fill="#297ea6" stroke="#297ea6"></path><path d="M651 240L661 209L610 232Z" fill="#081a28" stroke="#081a28"></path><path d="M610 165L611 94L584 133Z" fill="#277297" stroke="#277297"></path><path d="M255 402L290 449L299 404Z" fill="#205a7a" stroke="#205a7a"></path><path d="M347 455L383 506L471 400Z" fill="#297ea6" stroke="#297ea6"></path><path d="M683 182L611 94L610 165Z" fill="#00101c" stroke="#00101c"></path><path d="M584 133L601 65L474 89Z" fill="#112e42" stroke="#112e42"></path><path d="M375 0L332 30L448 92Z" fill="#0c2435" stroke="#0c2435"></path><path d="M320 67L209 90L265 160Z" fill="#205a7a" stroke="#205a7a"></path><path d="M161 269L202 282L249 188Z" fill="#00101c" stroke="#00101c"></path><path d="M290 449L337 487L344 451Z" fill="#15384f" stroke="#15384f"></path><path d="M663 408L658 356L595 356Z" fill="#19435d" stroke="#19435d"></path><path d="M760 250L680 222L642 260Z" fill="#19435d" stroke="#19435d"></path><path d="M619 433L595 356L574 409Z" fill="#277297" stroke="#277297"></path><path d="M233 369L224 431L255 402Z" fill="#205a7a" stroke="#205a7a"></path><path d="M255 402L261 462L290 449Z" fill="#081a28" stroke="#081a28"></path><path d="M168 301L194 350L218 325Z" fill="#15384f" stroke="#15384f"></path><path d="M760 250L642 260L765 311Z" fill="#246688" stroke="#246688"></path><path d="M661 209L683 182L615 175Z" fill="#297ea6" stroke="#297ea6"></path><path d="M455 0L423 0L486 37Z" fill="#19435d" stroke="#19435d"></path><path d="M486 37L423 0L448 92Z" fill="#112e42" stroke="#112e42"></path><path d="M337 487L383 506L347 455Z" fill="#0c2435" stroke="#0c2435"></path><path d="M507 0L455 0L486 37Z" fill="#1d4e6b" stroke="#1d4e6b"></path><path d="M597 28L601 65L638 0Z" fill="#15384f" stroke="#15384f"></path><path d="M611 94L601 65L584 133Z" fill="#205a7a" stroke="#205a7a"></path><path d="M423 0L375 0L448 92Z" fill="#0c2435" stroke="#0c2435"></path><path d="M605 489L574 409L521 437Z" fill="#1d4e6b" stroke="#1d4e6b"></path><path d="M161 269L168 296L202 282Z" fill="#19435d" stroke="#19435d"></path><path d="M202 282L168 301L218 325Z" fill="#00101c" stroke="#00101c"></path><path d="M161 269L249 188L170 154Z" fill="#0c2435" stroke="#0c2435"></path><path d="M168 296L168 301L202 282Z" fill="#00101c" stroke="#00101c"></path><path d="M680 222L683 182L661 209Z" fill="#15384f" stroke="#15384f"></path><path d="M224 431L261 462L255 402Z" fill="#19435d" stroke="#19435d"></path><path d="M290 449L261 462L337 487Z" fill="#00101c" stroke="#00101c"></path><path d="M377 540L381 536L351 540Z" fill="#15384f" stroke="#15384f"></path><path d="M514 0L507 0L486 37Z" fill="#297ea6" stroke="#297ea6"></path><path d="M170 154L249 188L178 132Z" fill="#112e42" stroke="#112e42"></path><path d="M168 296L131 336L168 301Z" fill="#205a7a" stroke="#205a7a"></path><path d="M314 0L274 36L332 30Z" fill="#15384f" stroke="#15384f"></path><path d="M332 30L274 36L320 67Z" fill="#246688" stroke="#246688"></path><path d="M543 0L514 0L486 37Z" fill="#205a7a" stroke="#205a7a"></path><path d="M156 396L233 369L194 350Z" fill="#081a28" stroke="#081a28"></path><path d="M156 396L224 431L233 369Z" fill="#112e42" stroke="#112e42"></path><path d="M375 0L331 0L332 30Z" fill="#00101c" stroke="#00101c"></path><path d="M601 65L567 19L474 89Z" fill="#1d4e6b" stroke="#1d4e6b"></path><path d="M216 68L209 90L320 67Z" fill="#00101c" stroke="#00101c"></path><path d="M178 132L249 188L265 160Z" fill="#081a28" stroke="#081a28"></path><path d="M209 90L178 132L265 160Z" fill="#1d4e6b" stroke="#1d4e6b"></path><path d="M331 0L314 0L332 30Z" fill="#081a28" stroke="#081a28"></path><path d="M274 36L216 68L320 67Z" fill="#297ea6" stroke="#297ea6"></path><path d="M567 19L543 0L486 37Z" fill="#15384f" stroke="#15384f"></path><path d="M619 433L663 408L595 356Z" fill="#081a28" stroke="#081a28"></path><path d="M743 204L683 182L680 222Z" fill="#0c2435" stroke="#0c2435"></path><path d="M274 3L216 68L274 36Z" fill="#205a7a" stroke="#205a7a"></path><path d="M209 90L148 92L178 132Z" fill="#277297" stroke="#277297"></path><path d="M638 0L601 65L678 0Z" fill="#297ea6" stroke="#297ea6"></path><path d="M601 65L597 28L567 19Z" fill="#277297" stroke="#277297"></path><path d="M567 19L549 -8L543 0Z" fill="#1d4e6b" stroke="#1d4e6b"></path><path d="M433 -37L418 -30L423 0Z" fill="#297ea6" stroke="#297ea6"></path><path d="M423 0L418 -30L375 0Z" fill="#246688" stroke="#246688"></path><path d="M375 0L418 -30L331 0Z" fill="#297ea6" stroke="#297ea6"></path><path d="M331 0L270 -55L314 0Z" fill="#246688" stroke="#246688"></path><path d="M433 -37L423 0L455 0Z" fill="#246688" stroke="#246688"></path><path d="M433 -37L455 0L507 0Z" fill="#1d4e6b" stroke="#1d4e6b"></path><path d="M529 -35L507 0L514 0Z" fill="#15384f" stroke="#15384f"></path><path d="M381 536L383 506L351 540Z" fill="#15384f" stroke="#15384f"></path><path d="M383 506L446 540L493 476Z" fill="#277297" stroke="#277297"></path><path d="M605 489L642 455L619 433Z" fill="#112e42" stroke="#112e42"></path><path d="M396 540L446 540L383 506Z" fill="#205a7a" stroke="#205a7a"></path><path d="M619 433L642 455L663 408Z" fill="#19435d" stroke="#19435d"></path><path d="M390 540L396 540L383 506Z" fill="#112e42" stroke="#112e42"></path><path d="M381 536L390 540L383 506Z" fill="#297ea6" stroke="#297ea6"></path><path d="M600 0L549 -8L567 19Z" fill="#00101c" stroke="#00101c"></path><path d="M543 0L529 -35L514 0Z" fill="#00101c" stroke="#00101c"></path><path d="M351 540L383 506L337 487Z" fill="#277297" stroke="#277297"></path><path d="M381 536L377 540L390 540Z" fill="#1d4e6b" stroke="#1d4e6b"></path><path d="M529 -35L433 -37L507 0Z" fill="#15384f" stroke="#15384f"></path><path d="M270 -55L274 3L314 0Z" fill="#081a28" stroke="#081a28"></path><path d="M605 489L521 437L556 521Z" fill="#246688" stroke="#246688"></path><path d="M556 521L521 437L493 476Z" fill="#19435d" stroke="#19435d"></path><path d="M743 204L710 169L683 182Z" fill="#081a28" stroke="#081a28"></path><path d="M683 182L710 169L611 94Z" fill="#246688" stroke="#246688"></path><path d="M743 204L680 222L760 250Z" fill="#277297" stroke="#277297"></path><path d="M270 -55L331 0L418 -30Z" fill="#19435d" stroke="#19435d"></path><path d="M314 0L274 3L274 36Z" fill="#1d4e6b" stroke="#1d4e6b"></path><path d="M540 541L556 521L493 476Z" fill="#1d4e6b" stroke="#1d4e6b"></path><path d="M337 540L351 540L337 487Z" fill="#19435d" stroke="#19435d"></path><path d="M337 540L337 487L286 540Z" fill="#19435d" stroke="#19435d"></path><path d="M286 540L337 487L261 462Z" fill="#277297" stroke="#277297"></path><path d="M396 540L462 553L446 540Z" fill="#205a7a" stroke="#205a7a"></path><path d="M446 540L462 553L493 476Z" fill="#1d4e6b" stroke="#1d4e6b"></path><path d="M274 594L462 553L396 540Z" fill="#112e42" stroke="#112e42"></path><path d="M274 594L396 540L390 540Z" fill="#1d4e6b" stroke="#1d4e6b"></path><path d="M274 594L390 540L377 540Z" fill="#297ea6" stroke="#297ea6"></path><path d="M274 594L377 540L351 540Z" fill="#277297" stroke="#277297"></path><path d="M136 125L170 154L178 132Z" fill="#0c2435" stroke="#0c2435"></path><path d="M136 125L136 182L170 154Z" fill="#246688" stroke="#246688"></path><path d="M170 154L136 182L161 269Z" fill="#246688" stroke="#246688"></path><path d="M131 336L194 350L168 301Z" fill="#112e42" stroke="#112e42"></path><path d="M131 336L156 396L194 350Z" fill="#0c2435" stroke="#0c2435"></path><path d="M242 520L286 540L261 462Z" fill="#1d4e6b" stroke="#1d4e6b"></path><path d="M131 336L168 296L161 269Z" fill="#297ea6" stroke="#297ea6"></path><path d="M620 -14L529 -35L549 -8Z" fill="#15384f" stroke="#15384f"></path><path d="M549 -8L529 -35L543 0Z" fill="#277297" stroke="#277297"></path><path d="M462 553L540 541L493 476Z" fill="#15384f" stroke="#15384f"></path><path d="M556 521L598 540L605 489Z" fill="#205a7a" stroke="#205a7a"></path><path d="M597 28L600 0L567 19Z" fill="#15384f" stroke="#15384f"></path><path d="M638 0L600 0L597 28Z" fill="#297ea6" stroke="#297ea6"></path><path d="M79 277L131 336L161 269Z" fill="#277297" stroke="#277297"></path><path d="M642 455L675 441L663 408Z" fill="#1d4e6b" stroke="#1d4e6b"></path><path d="M765 311L639 319L658 356Z" fill="#19435d" stroke="#19435d"></path><path d="M682 498L675 441L642 455Z" fill="#112e42" stroke="#112e42"></path><path d="M682 498L642 455L605 489Z" fill="#277297" stroke="#277297"></path><path d="M274 3L179 64L216 68Z" fill="#15384f" stroke="#15384f"></path><path d="M216 68L179 64L209 90Z" fill="#00101c" stroke="#00101c"></path><path d="M242 520L261 462L224 431Z" fill="#205a7a" stroke="#205a7a"></path><path d="M337 540L274 594L351 540Z" fill="#081a28" stroke="#081a28"></path><path d="M642 260L639 319L765 311Z" fill="#15384f" stroke="#15384f"></path><path d="M716 68L601 65L611 94Z" fill="#205a7a" stroke="#205a7a"></path><path d="M148 92L136 125L178 132Z" fill="#15384f" stroke="#15384f"></path><path d="M136 182L114 194L161 269Z" fill="#205a7a" stroke="#205a7a"></path><path d="M102 175L114 194L136 182Z" fill="#297ea6" stroke="#297ea6"></path><path d="M150 498L242 520L224 431Z" fill="#0c2435" stroke="#0c2435"></path><path d="M179 64L148 92L209 90Z" fill="#277297" stroke="#277297"></path><path d="M743 204L743 170L710 169Z" fill="#0c2435" stroke="#0c2435"></path><path d="M643 -6L638 0L678 0Z" fill="#19435d" stroke="#19435d"></path><path d="M600 0L620 -14L549 -8Z" fill="#297ea6" stroke="#297ea6"></path><path d="M638 0L620 -14L600 0Z" fill="#081a28" stroke="#081a28"></path><path d="M765 311L658 356L768 379Z" fill="#15384f" stroke="#15384f"></path><path d="M743 204L764 200L743 170Z" fill="#297ea6" stroke="#297ea6"></path><path d="M697 564L598 540L540 541Z" fill="#297ea6" stroke="#297ea6"></path><path d="M540 541L598 540L556 521Z" fill="#205a7a" stroke="#205a7a"></path><path d="M116 399L153 446L156 396Z" fill="#00101c" stroke="#00101c"></path><path d="M156 396L153 446L224 431Z" fill="#112e42" stroke="#112e42"></path><path d="M131 336L116 377L156 396Z" fill="#277297" stroke="#277297"></path><path d="M79 277L116 377L131 336Z" fill="#00101c" stroke="#00101c"></path><path d="M136 125L102 175L136 182Z" fill="#1d4e6b" stroke="#1d4e6b"></path><path d="M114 194L82 231L161 269Z" fill="#112e42" stroke="#112e42"></path><path d="M94 139L102 175L136 125Z" fill="#112e42" stroke="#112e42"></path><path d="M716 68L611 94L710 169Z" fill="#246688" stroke="#246688"></path><path d="M638 0L643 -6L620 -14Z" fill="#0c2435" stroke="#0c2435"></path><path d="M760 250L764 200L743 204Z" fill="#1d4e6b" stroke="#1d4e6b"></path><path d="M743 170L716 68L710 169Z" fill="#1d4e6b" stroke="#1d4e6b"></path><path d="M726 424L658 356L663 408Z" fill="#277297" stroke="#277297"></path><path d="M760 250L808 253L764 200Z" fill="#15384f" stroke="#15384f"></path><path d="M724 491L726 424L675 441Z" fill="#277297" stroke="#277297"></path><path d="M675 441L726 424L663 408Z" fill="#246688" stroke="#246688"></path><path d="M766 159L716 68L743 170Z" fill="#277297" stroke="#277297"></path><path d="M46 393L116 399L116 377Z" fill="#297ea6" stroke="#297ea6"></path><path d="M116 377L116 399L156 396Z" fill="#1d4e6b" stroke="#1d4e6b"></path><path d="M697 564L624 540L598 540Z" fill="#081a28" stroke="#081a28"></path><path d="M598 540L624 540L605 489Z" fill="#1d4e6b" stroke="#1d4e6b"></path><path d="M724 491L732 422L726 424Z" fill="#19435d" stroke="#19435d"></path><path d="M726 424L732 422L658 356Z" fill="#246688" stroke="#246688"></path><path d="M102 175L82 231L114 194Z" fill="#19435d" stroke="#19435d"></path><path d="M433 -37L270 -55L418 -30Z" fill="#19435d" stroke="#19435d"></path><path d="M274 3L129 0L179 64Z" fill="#19435d" stroke="#19435d"></path><path d="M129 0L91 78L148 92Z" fill="#246688" stroke="#246688"></path><path d="M680 -50L270 -55L433 -37Z" fill="#297ea6" stroke="#297ea6"></path><path d="M624 540L630 540L605 489Z" fill="#205a7a" stroke="#205a7a"></path><path d="M697 564L630 540L624 540Z" fill="#205a7a" stroke="#205a7a"></path><path d="M82 231L79 277L161 269Z" fill="#081a28" stroke="#081a28"></path><path d="M849 226L766 159L764 200Z" fill="#0c2435" stroke="#0c2435"></path><path d="M764 200L766 159L743 170Z" fill="#1d4e6b" stroke="#1d4e6b"></path><path d="M630 540L682 498L605 489Z" fill="#205a7a" stroke="#205a7a"></path><path d="M96 131L136 125L91 78Z" fill="#205a7a" stroke="#205a7a"></path><path d="M96 131L94 139L136 125Z" fill="#246688" stroke="#246688"></path><path d="M51 201L48 249L82 231Z" fill="#297ea6" stroke="#297ea6"></path><path d="M91 78L136 125L148 92Z" fill="#246688" stroke="#246688"></path><path d="M716 68L678 0L601 65Z" fill="#15384f" stroke="#15384f"></path><path d="M643 -6L680 -50L620 -14Z" fill="#205a7a" stroke="#205a7a"></path><path d="M129 461L145 473L153 446Z" fill="#081a28" stroke="#081a28"></path><path d="M153 446L145 473L224 431Z" fill="#0c2435" stroke="#0c2435"></path><path d="M732 422L768 379L658 356Z" fill="#081a28" stroke="#081a28"></path><path d="M765 311L808 253L760 250Z" fill="#277297" stroke="#277297"></path><path d="M796 372L768 379L809 407Z" fill="#1d4e6b" stroke="#1d4e6b"></path><path d="M52 446L129 461L116 399Z" fill="#15384f" stroke="#15384f"></path><path d="M116 399L129 461L153 446Z" fill="#277297" stroke="#277297"></path><path d="M82 231L64 261L79 277Z" fill="#1d4e6b" stroke="#1d4e6b"></path><path d="M79 277L46 393L116 377Z" fill="#00101c" stroke="#00101c"></path><path d="M48 249L64 261L82 231Z" fill="#00101c" stroke="#00101c"></path><path d="M64 261L63 268L79 277Z" fill="#246688" stroke="#246688"></path><path d="M129 461L150 498L145 473Z" fill="#246688" stroke="#246688"></path><path d="M145 473L150 498L224 431Z" fill="#081a28" stroke="#081a28"></path><path d="M242 520L274 594L286 540Z" fill="#277297" stroke="#277297"></path><path d="M176 540L274 594L242 520Z" fill="#205a7a" stroke="#205a7a"></path><path d="M286 540L274 594L337 540Z" fill="#00101c" stroke="#00101c"></path><path d="M462 553L697 564L540 541Z" fill="#112e42" stroke="#112e42"></path><path d="M753 38L723 26L716 68Z" fill="#246688" stroke="#246688"></path><path d="M716 68L723 26L678 0Z" fill="#19435d" stroke="#19435d"></path><path d="M697 564L724 491L682 498Z" fill="#00101c" stroke="#00101c"></path><path d="M682 498L724 491L675 441Z" fill="#15384f" stroke="#15384f"></path><path d="M829 265L808 253L765 311Z" fill="#1d4e6b" stroke="#1d4e6b"></path><path d="M766 159L758 60L716 68Z" fill="#19435d" stroke="#19435d"></path><path d="M51 201L102 175L94 139Z" fill="#00101c" stroke="#00101c"></path><path d="M51 201L82 231L102 175Z" fill="#1d4e6b" stroke="#1d4e6b"></path><path d="M64 261L48 249L63 268Z" fill="#297ea6" stroke="#297ea6"></path><path d="M5 305L46 393L79 277Z" fill="#205a7a" stroke="#205a7a"></path><path d="M150 498L176 540L242 520Z" fill="#246688" stroke="#246688"></path><path d="M129 0L148 92L179 64Z" fill="#15384f" stroke="#15384f"></path><path d="M96 131L11 136L94 139Z" fill="#297ea6" stroke="#297ea6"></path><path d="M0 214L51 201L11 136Z" fill="#277297" stroke="#277297"></path><path d="M770 42L758 60L861 128Z" fill="#297ea6" stroke="#297ea6"></path><path d="M773 432L768 379L732 422Z" fill="#246688" stroke="#246688"></path><path d="M768 379L796 372L765 311Z" fill="#205a7a" stroke="#205a7a"></path><path d="M753 38L724 6L723 26Z" fill="#297ea6" stroke="#297ea6"></path><path d="M723 26L724 6L678 0Z" fill="#081a28" stroke="#081a28"></path><path d="M678 0L680 -50L643 -6Z" fill="#19435d" stroke="#19435d"></path><path d="M620 -14L680 -50L529 -35Z" fill="#246688" stroke="#246688"></path><path d="M724 491L773 432L732 422Z" fill="#297ea6" stroke="#297ea6"></path><path d="M770 42L753 38L758 60Z" fill="#246688" stroke="#246688"></path><path d="M758 60L753 38L716 68Z" fill="#297ea6" stroke="#297ea6"></path><path d="M270 -55L129 0L274 3Z" fill="#19435d" stroke="#19435d"></path><path d="M150 498L157 540L176 540Z" fill="#00101c" stroke="#00101c"></path><path d="M176 540L157 540L274 594Z" fill="#112e42" stroke="#112e42"></path><path d="M68 555L157 540L150 498Z" fill="#19435d" stroke="#19435d"></path><path d="M68 555L150 498L129 461Z" fill="#15384f" stroke="#15384f"></path><path d="M793 0L680 -50L724 6Z" fill="#081a28" stroke="#081a28"></path><path d="M724 6L680 -50L678 0Z" fill="#081a28" stroke="#081a28"></path><path d="M529 -35L680 -50L433 -37Z" fill="#0c2435" stroke="#0c2435"></path><path d="M831 349L829 265L765 311Z" fill="#1d4e6b" stroke="#1d4e6b"></path><path d="M808 253L849 226L764 200Z" fill="#297ea6" stroke="#297ea6"></path><path d="M861 128L758 60L766 159Z" fill="#297ea6" stroke="#297ea6"></path><path d="M753 38L793 0L724 6Z" fill="#1d4e6b" stroke="#1d4e6b"></path><path d="M5 305L79 277L63 268Z" fill="#081a28" stroke="#081a28"></path><path d="M630 540L697 564L682 498Z" fill="#297ea6" stroke="#297ea6"></path><path d="M818 453L809 407L773 432Z" fill="#112e42" stroke="#112e42"></path><path d="M274 594L697 564L462 553Z" fill="#246688" stroke="#246688"></path><path d="M861 312L838 252L829 265Z" fill="#205a7a" stroke="#205a7a"></path><path d="M829 265L838 252L808 253Z" fill="#15384f" stroke="#15384f"></path><path d="M773 432L809 407L768 379Z" fill="#081a28" stroke="#081a28"></path><path d="M796 372L831 349L765 311Z" fill="#246688" stroke="#246688"></path><path d="M818 453L773 432L724 491Z" fill="#246688" stroke="#246688"></path><path d="M826 394L831 349L796 372Z" fill="#246688" stroke="#246688"></path><path d="M0 433L45 427L46 393Z" fill="#205a7a" stroke="#205a7a"></path><path d="M46 393L45 427L116 399Z" fill="#277297" stroke="#277297"></path><path d="M818 453L826 394L809 407Z" fill="#19435d" stroke="#19435d"></path><path d="M809 407L826 394L796 372Z" fill="#277297" stroke="#277297"></path><path d="M850 234L849 226L838 252Z" fill="#246688" stroke="#246688"></path><path d="M838 252L849 226L808 253Z" fill="#297ea6" stroke="#297ea6"></path><path d="M850 234L838 252L894 229Z" fill="#246688" stroke="#246688"></path><path d="M45 427L52 446L116 399Z" fill="#0c2435" stroke="#0c2435"></path><path d="M861 312L829 265L831 349Z" fill="#246688" stroke="#246688"></path><path d="M270 -55L89 0L129 0Z" fill="#205a7a" stroke="#205a7a"></path><path d="M129 0L89 0L91 78Z" fill="#0c2435" stroke="#0c2435"></path><path d="M0 220L48 249L51 201Z" fill="#246688" stroke="#246688"></path><path d="M270 -55L87 0L89 0Z" fill="#081a28" stroke="#081a28"></path><path d="M89 0L52 44L91 78Z" fill="#081a28" stroke="#081a28"></path><path d="M0 269L63 268L48 249Z" fill="#246688" stroke="#246688"></path><path d="M0 269L5 305L63 268Z" fill="#081a28" stroke="#081a28"></path><path d="M0 269L48 249L0 228Z" fill="#0c2435" stroke="#0c2435"></path><path d="M274 594L719 568L697 564Z" fill="#00101c" stroke="#00101c"></path><path d="M697 564L719 568L724 491Z" fill="#246688" stroke="#246688"></path><path d="M0 228L48 249L0 220Z" fill="#277297" stroke="#277297"></path><path d="M0 220L51 201L0 214Z" fill="#0c2435" stroke="#0c2435"></path><path d="M51 201L94 139L11 136Z" fill="#112e42" stroke="#112e42"></path><path d="M11 136L96 131L15 100Z" fill="#205a7a" stroke="#205a7a"></path><path d="M87 0L52 44L89 0Z" fill="#205a7a" stroke="#205a7a"></path><path d="M15 100L96 131L91 78Z" fill="#15384f" stroke="#15384f"></path><path d="M884 364L861 312L831 349Z" fill="#19435d" stroke="#19435d"></path><path d="M894 134L861 128L849 226Z" fill="#205a7a" stroke="#205a7a"></path><path d="M782 540L818 453L724 491Z" fill="#297ea6" stroke="#297ea6"></path><path d="M826 394L872 388L831 349Z" fill="#15384f" stroke="#15384f"></path><path d="M-40 362L0 356L5 305Z" fill="#0c2435" stroke="#0c2435"></path><path d="M5 305L0 356L46 393Z" fill="#205a7a" stroke="#205a7a"></path><path d="M45 427L0 433L52 446Z" fill="#19435d" stroke="#19435d"></path><path d="M719 568L745 561L724 491Z" fill="#1d4e6b" stroke="#1d4e6b"></path><path d="M52 44L15 100L91 78Z" fill="#19435d" stroke="#19435d"></path><path d="M11 136L0 137L0 214Z" fill="#00101c" stroke="#00101c"></path><path d="M745 561L768 540L724 491Z" fill="#081a28" stroke="#081a28"></path><path d="M15 100L0 137L11 136Z" fill="#081a28" stroke="#081a28"></path><path d="M871 0L793 0L770 42Z" fill="#19435d" stroke="#19435d"></path><path d="M770 42L793 0L753 38Z" fill="#1d4e6b" stroke="#1d4e6b"></path><path d="M52 44L0 21L15 100Z" fill="#19435d" stroke="#19435d"></path><path d="M87 0L58 0L52 44Z" fill="#112e42" stroke="#112e42"></path><path d="M270 -55L58 0L87 0Z" fill="#0c2435" stroke="#0c2435"></path><path d="M894 229L849 226L850 234Z" fill="#277297" stroke="#277297"></path><path d="M849 226L861 128L766 159Z" fill="#0c2435" stroke="#0c2435"></path><path d="M745 561L782 540L768 540Z" fill="#297ea6" stroke="#297ea6"></path><path d="M768 540L782 540L724 491Z" fill="#1d4e6b" stroke="#1d4e6b"></path><path d="M889 393L872 388L886 454Z" fill="#1d4e6b" stroke="#1d4e6b"></path><path d="M886 454L872 388L826 394Z" fill="#205a7a" stroke="#205a7a"></path><path d="M861 312L894 229L838 252Z" fill="#1d4e6b" stroke="#1d4e6b"></path><path d="M0 356L0 433L46 393Z" fill="#205a7a" stroke="#205a7a"></path><path d="M52 446L68 555L129 461Z" fill="#19435d" stroke="#19435d"></path><path d="M0 463L23 482L52 446Z" fill="#277297" stroke="#277297"></path><path d="M157 540L68 555L274 594Z" fill="#0c2435" stroke="#0c2435"></path><path d="M960 293L894 229L861 312Z" fill="#15384f" stroke="#15384f"></path><path d="M872 388L884 364L831 349Z" fill="#277297" stroke="#277297"></path><path d="M23 482L68 555L52 446Z" fill="#15384f" stroke="#15384f"></path><path d="M0 433L0 463L52 446Z" fill="#297ea6" stroke="#297ea6"></path><path d="M28 540L48 557L68 555Z" fill="#0c2435" stroke="#0c2435"></path><path d="M0 269L-40 362L5 305Z" fill="#205a7a" stroke="#205a7a"></path><path d="M0 356L-40 362L0 433Z" fill="#15384f" stroke="#15384f"></path><path d="M0 433L-40 362L0 463Z" fill="#277297" stroke="#277297"></path><path d="M0 228L-40 362L0 269Z" fill="#19435d" stroke="#19435d"></path><path d="M0 220L-40 362L0 228Z" fill="#205a7a" stroke="#205a7a"></path><path d="M0 214L-40 362L0 220Z" fill="#15384f" stroke="#15384f"></path><path d="M0 137L-40 362L0 214Z" fill="#205a7a" stroke="#205a7a"></path><path d="M886 454L826 394L818 453Z" fill="#297ea6" stroke="#297ea6"></path><path d="M872 388L889 393L884 364Z" fill="#0c2435" stroke="#0c2435"></path><path d="M944 172L929 178L960 179Z" fill="#0c2435" stroke="#0c2435"></path><path d="M894 229L894 134L849 226Z" fill="#15384f" stroke="#15384f"></path><path d="M861 128L871 0L770 42Z" fill="#0c2435" stroke="#0c2435"></path><path d="M28 540L68 555L23 482Z" fill="#297ea6" stroke="#297ea6"></path><path d="M68 555L48 557L274 594Z" fill="#081a28" stroke="#081a28"></path><path d="M58 0L0 21L52 44Z" fill="#205a7a" stroke="#205a7a"></path><path d="M15 100L0 21L0 137Z" fill="#0c2435" stroke="#0c2435"></path><path d="M0 137L0 21L-40 362Z" fill="#081a28" stroke="#081a28"></path><path d="M0 509L23 482L0 463Z" fill="#00101c" stroke="#00101c"></path><path d="M0 509L28 540L23 482Z" fill="#297ea6" stroke="#297ea6"></path><path d="M915 144L898 109L894 134Z" fill="#246688" stroke="#246688"></path><path d="M894 134L898 109L861 128Z" fill="#297ea6" stroke="#297ea6"></path><path d="M915 144L894 134L929 178Z" fill="#19435d" stroke="#19435d"></path><path d="M0 0L0 3L58 0Z" fill="#00101c" stroke="#00101c"></path><path d="M58 0L0 3L0 21Z" fill="#0c2435" stroke="#0c2435"></path><path d="M0 21L0 3L-40 362Z" fill="#19435d" stroke="#19435d"></path><path d="M-40 362L0 509L0 463Z" fill="#246688" stroke="#246688"></path><path d="M270 -55L0 0L58 0Z" fill="#00101c" stroke="#00101c"></path><path d="M0 3L0 0L-40 362Z" fill="#1d4e6b" stroke="#1d4e6b"></path><path d="M875 495L886 454L818 453Z" fill="#0c2435" stroke="#0c2435"></path><path d="M929 178L894 134L894 229Z" fill="#15384f" stroke="#15384f"></path><path d="M894 229L960 215L929 178Z" fill="#277297" stroke="#277297"></path><path d="M861 312L884 364L954 331Z" fill="#1d4e6b" stroke="#1d4e6b"></path><path d="M851 540L875 495L818 453Z" fill="#19435d" stroke="#19435d"></path><path d="M851 540L818 453L782 540Z" fill="#277297" stroke="#277297"></path><path d="M863 540L851 540L960 592Z" fill="#0c2435" stroke="#0c2435"></path><path d="M745 561L851 540L782 540Z" fill="#112e42" stroke="#112e42"></path><path d="M898 109L871 0L861 128Z" fill="#00101c" stroke="#00101c"></path><path d="M793 0L871 0L680 -50Z" fill="#277297" stroke="#277297"></path><path d="M926 27L871 0L898 109Z" fill="#277297" stroke="#277297"></path><path d="M926 27L898 109L959 74Z" fill="#15384f" stroke="#15384f"></path><path d="M-4 540L0 540L0 509Z" fill="#246688" stroke="#246688"></path><path d="M0 509L0 540L28 540Z" fill="#246688" stroke="#246688"></path><path d="M28 540L0 540L48 557Z" fill="#0c2435" stroke="#0c2435"></path><path d="M-40 362L-4 540L0 509Z" fill="#277297" stroke="#277297"></path><path d="M0 540L-4 540L48 557Z" fill="#081a28" stroke="#081a28"></path><path d="M851 540L881 507L875 495Z" fill="#0c2435" stroke="#0c2435"></path><path d="M875 495L894 495L886 454Z" fill="#0c2435" stroke="#0c2435"></path><path d="M954 331L884 364L946 382Z" fill="#19435d" stroke="#19435d"></path><path d="M948 540L863 540L960 592Z" fill="#297ea6" stroke="#297ea6"></path><path d="M851 540L863 540L881 507Z" fill="#00101c" stroke="#00101c"></path><path d="M884 364L889 393L946 382Z" fill="#1d4e6b" stroke="#1d4e6b"></path><path d="M929 178L944 172L915 144Z" fill="#19435d" stroke="#19435d"></path><path d="M948 540L894 495L881 507Z" fill="#277297" stroke="#277297"></path><path d="M881 507L894 495L875 495Z" fill="#15384f" stroke="#15384f"></path><path d="M946 382L889 393L960 453Z" fill="#0c2435" stroke="#0c2435"></path><path d="M960 453L913 473L948 540Z" fill="#205a7a" stroke="#205a7a"></path><path d="M894 495L913 473L886 454Z" fill="#0c2435" stroke="#0c2435"></path><path d="M960 296L960 293L861 312Z" fill="#277297" stroke="#277297"></path><path d="M960 453L889 393L886 454Z" fill="#15384f" stroke="#15384f"></path><path d="M954 331L960 296L861 312Z" fill="#246688" stroke="#246688"></path><path d="M960 293L960 215L894 229Z" fill="#1d4e6b" stroke="#1d4e6b"></path><path d="M960 324L960 296L954 331Z" fill="#00101c" stroke="#00101c"></path><path d="M960 365L960 324L954 331Z" fill="#246688" stroke="#246688"></path><path d="M960 215L960 179L929 178Z" fill="#081a28" stroke="#081a28"></path><path d="M944 172L960 82L915 144Z" fill="#1d4e6b" stroke="#1d4e6b"></path><path d="M960 377L960 365L946 382Z" fill="#081a28" stroke="#081a28"></path><path d="M946 382L960 365L954 331Z" fill="#246688" stroke="#246688"></path><path d="M960 453L960 377L946 382Z" fill="#297ea6" stroke="#297ea6"></path><path d="M960 82L898 109L915 144Z" fill="#1d4e6b" stroke="#1d4e6b"></path><path d="M960 179L960 82L944 172Z" fill="#081a28" stroke="#081a28"></path><path d="M960 82L959 74L898 109Z" fill="#00101c" stroke="#00101c"></path><path d="M948 540L913 473L894 495Z" fill="#081a28" stroke="#081a28"></path><path d="M913 473L960 453L886 454Z" fill="#081a28" stroke="#081a28"></path><path d="M972 0L960 35L997 -11Z" fill="#081a28" stroke="#081a28"></path><path d="M959 74L960 35L926 27Z" fill="#15384f" stroke="#15384f"></path><path d="M926 27L951 0L871 0Z" fill="#205a7a" stroke="#205a7a"></path><path d="M960 35L951 0L926 27Z" fill="#1d4e6b" stroke="#1d4e6b"></path><path d="M871 0L997 -11L680 -50Z" fill="#246688" stroke="#246688"></path><path d="M960 35L960 0L951 0Z" fill="#277297" stroke="#277297"></path><path d="M951 0L997 -11L871 0Z" fill="#297ea6" stroke="#297ea6"></path><path d="M960 592L851 540L745 561Z" fill="#1d4e6b" stroke="#1d4e6b"></path><path d="M863 540L948 540L881 507Z" fill="#19435d" stroke="#19435d"></path><path d="M997 -11L960 35L959 74Z" fill="#081a28" stroke="#081a28"></path><path d="M960 35L972 0L960 0Z" fill="#081a28" stroke="#081a28"></path><path d="M960 0L997 -11L951 0Z" fill="#297ea6" stroke="#297ea6"></path><path d="M997 -11L959 74L960 82Z" fill="#15384f" stroke="#15384f"></path><path d="M997 -11L960 82L960 179Z" fill="#205a7a" stroke="#205a7a"></path><path d="M997 -11L960 179L960 215Z" fill="#15384f" stroke="#15384f"></path><path d="M997 -11L960 215L960 293Z" fill="#00101c" stroke="#00101c"></path><path d="M997 -11L960 293L960 296Z" fill="#19435d" stroke="#19435d"></path><path d="M997 -11L960 296L960 324Z" fill="#277297" stroke="#277297"></path><path d="M997 -11L960 324L960 365Z" fill="#277297" stroke="#277297"></path><path d="M997 -11L960 365L960 377Z" fill="#19435d" stroke="#19435d"></path><path d="M948 540L960 540L960 453Z" fill="#297ea6" stroke="#297ea6"></path><path d="M960 453L997 -11L960 377Z" fill="#246688" stroke="#246688"></path><path d="M960 592L960 540L948 540Z" fill="#0c2435" stroke="#0c2435"></path><path d="M960 540L997 -11L960 453Z" fill="#297ea6" stroke="#297ea6"></path><path d="M972 0L997 -11L960 0Z" fill="#19435d" stroke="#19435d"></path><path d="M274 594L960 592L719 568Z" fill="#081a28" stroke="#081a28"></path><path d="M719 568L960 592L745 561Z" fill="#19435d" stroke="#19435d"></path><path d="M960 540L960 592L997 -11Z" fill="#1d4e6b" stroke="#1d4e6b"></path></g></svg>