<svg id="visual" viewBox="0 0 960 540" width="960" height="540" xmlns="http://www.w3.org/2000/svg" xmlns:xlink="http://www.w3.org/1999/xlink" version="1.1"><rect x="0" y="0" width="960" height="540" fill="#001220"></rect><defs><linearGradient id="grad1_0" x1="43.8%" y1="0%" x2="100%" y2="100%"><stop offset="14.444444444444446%" stop-color="#009473" stop-opacity="1"></stop><stop offset="85.55555555555554%" stop-color="#009473" stop-opacity="1"></stop></linearGradient></defs><defs><linearGradient id="grad1_1" x1="43.8%" y1="0%" x2="100%" y2="100%"><stop offset="14.444444444444446%" stop-color="#009473" stop-opacity="1"></stop><stop offset="85.55555555555554%" stop-color="#00726f" stop-opacity="1"></stop></linearGradient></defs><defs><linearGradient id="grad1_2" x1="43.8%" y1="0%" x2="100%" y2="100%"><stop offset="14.444444444444446%" stop-color="#00505e" stop-opacity="1"></stop><stop offset="85.55555555555554%" stop-color="#00726f" stop-opacity="1"></stop></linearGradient></defs><defs><linearGradient id="grad1_3" x1="43.8%" y1="0%" x2="100%" y2="100%"><stop offset="14.444444444444446%" stop-color="#00505e" stop-opacity="1"></stop><stop offset="85.55555555555554%" stop-color="#002f42" stop-opacity="1"></stop></linearGradient></defs><defs><linearGradient id="grad1_4" x1="43.8%" y1="0%" x2="100%" y2="100%"><stop offset="14.444444444444446%" stop-color="#001220" stop-opacity="1"></stop><stop offset="85.55555555555554%" stop-color="#002f42" stop-opacity="1"></stop></linearGradient></defs><defs><linearGradient id="grad2_0" x1="0%" y1="0%" x2="56.3%" y2="100%"><stop offset="14.444444444444446%" stop-color="#009473" stop-opacity="1"></stop><stop offset="85.55555555555554%" stop-color="#009473" stop-opacity="1"></stop></linearGradient></defs><defs><linearGradient id="grad2_1" x1="0%" y1="0%" x2="56.3%" y2="100%"><stop offset="14.444444444444446%" stop-color="#00726f" stop-opacity="1"></stop><stop offset="85.55555555555554%" stop-color="#009473" stop-opacity="1"></stop></linearGradient></defs><defs><linearGradient id="grad2_2" x1="0%" y1="0%" x2="56.3%" y2="100%"><stop offset="14.444444444444446%" stop-color="#00726f" stop-opacity="1"></stop><stop offset="85.55555555555554%" stop-color="#00505e" stop-opacity="1"></stop></linearGradient></defs><defs><linearGradient id="grad2_3" x1="0%" y1="0%" x2="56.3%" y2="100%"><stop offset="14.444444444444446%" stop-color="#002f42" stop-opacity="1"></stop><stop offset="85.55555555555554%" stop-color="#00505e" stop-opacity="1"></stop></linearGradient></defs><defs><linearGradient id="grad2_4" x1="0%" y1="0%" x2="56.3%" y2="100%"><stop offset="14.444444444444446%" stop-color="#002f42" stop-opacity="1"></stop><stop offset="85.55555555555554%" stop-color="#001220" stop-opacity="1"></stop></linearGradient></defs><g transform="translate(960, 0)"><path d="M0 540C-40.3 522.6 -80.6 505.2 -108.4 474.8C-136.1 444.4 -151.4 401 -187.9 390.1C-224.4 379.2 -282.2 400.9 -304.3 381.5C-326.3 362.2 -312.7 301.8 -345.6 275.6C-378.5 249.4 -457.9 257.4 -486.5 234.3C-515.1 211.2 -492.9 156.8 -493.3 112.6C-493.8 68.4 -516.9 34.2 -540 0L0 0Z" fill="#002031"></path><path d="M0 432C-32.2 418.1 -64.5 404.2 -86.7 379.8C-108.9 355.5 -121.1 320.8 -150.3 312.1C-179.5 303.4 -225.8 320.7 -243.4 305.2C-261.1 289.7 -250.1 241.4 -276.5 220.5C-302.8 199.5 -366.3 205.9 -389.2 187.4C-412.1 168.9 -394.3 125.5 -394.7 90.1C-395 54.7 -413.5 27.3 -432 0L0 0Z" fill="#003f51"></path><path d="M0 324C-24.2 313.6 -48.4 303.1 -65 284.9C-81.7 266.6 -90.8 240.6 -112.7 234.1C-134.6 227.5 -169.3 240.5 -182.6 228.9C-195.8 217.3 -187.6 181.1 -207.3 165.3C-227.1 149.6 -274.8 154.5 -291.9 140.6C-309.1 126.7 -295.7 94.1 -296 67.6C-296.3 41 -310.1 20.5 -324 0L0 0Z" fill="#006168"></path><path d="M0 216C-16.1 209 -32.2 202.1 -43.3 189.9C-54.5 177.8 -60.5 160.4 -75.1 156C-89.8 151.7 -112.9 160.4 -121.7 152.6C-130.5 144.9 -125.1 120.7 -138.2 110.2C-151.4 99.8 -183.2 103 -194.6 93.7C-206.1 84.5 -197.2 62.7 -197.3 45C-197.5 27.3 -206.8 13.7 -216 0L0 0Z" fill="#008372"></path><path d="M0 108C-8.1 104.5 -16.1 101 -21.7 95C-27.2 88.9 -30.3 80.2 -37.6 78C-44.9 75.8 -56.4 80.2 -60.9 76.3C-65.3 72.4 -62.5 60.4 -69.1 55.1C-75.7 49.9 -91.6 51.5 -97.3 46.9C-103 42.2 -98.6 31.4 -98.7 22.5C-98.8 13.7 -103.4 6.8 -108 0L0 0Z" fill="#009473"></path></g><g transform="translate(0, 540)"><path d="M0 -540C43.5 -542.4 87.1 -544.8 117.7 -515.7C148.3 -486.7 166.1 -426.2 190.9 -396.4C215.8 -366.7 247.8 -367.7 291.2 -365.1C334.6 -362.5 389.4 -356.2 410.5 -327.3C431.5 -298.4 418.8 -246.9 437 -210.4C455.1 -174 504.1 -152.7 526.5 -120.2C548.8 -87.6 544.4 -43.8 540 0L0 0Z" fill="#002031"></path><path d="M0 -432C34.8 -433.9 69.7 -435.8 94.2 -412.6C118.7 -389.3 132.8 -340.9 152.7 -317.1C172.6 -293.4 198.2 -294.2 232.9 -292.1C267.7 -290 311.5 -285 328.4 -261.9C345.2 -238.7 335.1 -197.5 349.6 -168.3C364.1 -139.2 403.3 -122.2 421.2 -96.1C439 -70.1 435.5 -35 432 0L0 0Z" fill="#003f51"></path><path d="M0 -324C26.1 -325.4 52.3 -326.9 70.6 -309.4C89 -292 99.6 -255.7 114.5 -237.9C129.5 -220 148.7 -220.6 174.7 -219.1C200.7 -217.5 233.6 -213.7 246.3 -196.4C258.9 -179.1 251.3 -148.1 262.2 -126.3C273.1 -104.4 302.5 -91.6 315.9 -72.1C329.3 -52.6 326.6 -26.3 324 0L0 0Z" fill="#006168"></path><path d="M0 -216C17.4 -217 34.8 -217.9 47.1 -206.3C59.3 -194.7 66.4 -170.5 76.4 -158.6C86.3 -146.7 99.1 -147.1 116.5 -146C133.8 -145 155.8 -142.5 164.2 -130.9C172.6 -119.4 167.5 -98.7 174.8 -84.2C182.1 -69.6 201.7 -61.1 210.6 -48.1C219.5 -35 217.8 -17.5 216 0L0 0Z" fill="#008372"></path><path d="M0 -108C8.7 -108.5 17.4 -109 23.5 -103.1C29.7 -97.3 33.2 -85.2 38.2 -79.3C43.2 -73.3 49.6 -73.5 58.2 -73C66.9 -72.5 77.9 -71.2 82.1 -65.5C86.3 -59.7 83.8 -49.4 87.4 -42.1C91 -34.8 100.8 -30.5 105.3 -24C109.8 -17.5 108.9 -8.8 108 0L0 0Z" fill="#009473"></path></g></svg>